<svg width="215" height="211" viewBox="0 0 215 211" fill="none" xmlns="http://www.w3.org/2000/svg">
<path fill-rule="evenodd" clip-rule="evenodd" d="M3.1963 92.6815C-0.840534 110.851 -0.607656 131.464 2.69564 150.364C2.69564 151.439 2.67268 152.748 2.64641 154.246C2.43532 166.284 2.01126 190.467 11.5888 202.399C14.1915 209.048 21.571 212.577 28.4359 210.317L196.049 155.124C197.505 154.644 198.824 153.942 199.982 153.067L202.767 152.15C210.042 137.52 214.356 119.307 214.356 99.5652C214.356 67.1021 202.691 38.774 185.375 23.7095C173.398 9.50043 144.848 0 106.325 0C97.2849 0 91.8692 0.457763 89.0114 1.32963C73.4405 3.75243 59.2229 9.38299 47.3824 17.3677C25.2205 28.6328 8.21308 57.2306 3.1963 92.6815Z" fill="#008000"/>
<path d="M116.484 107.016C116.484 132.265 28.6935 150.364 2.69564 150.364C-1.02959 140.881 0.324919 140.055 0.324919 114.805C0.324919 89.555 -4.33745 87.7122 21.6604 87.7122C47.6583 87.7122 116.484 81.7659 116.484 107.016Z" fill="black"/>
</svg>
