<svg width="628" height="673" viewBox="0 0 628 673" fill="none" xmlns="http://www.w3.org/2000/svg">
<path fill-rule="evenodd" clip-rule="evenodd" d="M313.878 132.502C314.536 130.913 314.803 130 314.803 130V134.668C322.436 151.386 360.941 212.011 506 170.167C480.268 456.243 331.904 533.238 314.803 541.197V541.314C314.803 541.314 314.759 541.296 314.672 541.258C313.706 541.706 313.197 541.915 313.197 541.915V540.596C296.096 532.636 147.732 455.642 122 169.566C267.059 211.41 305.564 150.785 313.197 134.066V130.602C313.197 130.602 313.397 131.286 313.878 132.502Z" fill="white"/>
<path fill-rule="evenodd" clip-rule="evenodd" d="M314.881 0C314.881 0 314.444 1.49128 313.37 4.08608C312.584 2.10089 312.257 0.982355 312.257 0.982355V6.64093C299.791 33.9449 236.907 132.956 0 64.6178C42.0243 531.829 284.328 657.574 312.257 670.574V672.728C312.257 672.728 313.088 672.386 314.666 671.656C314.809 671.716 314.881 671.746 314.881 671.746V671.556C342.81 658.556 585.114 532.811 627.138 65.6002C390.231 133.939 327.347 34.9273 314.881 7.62328V0ZM315.121 49C315.121 49 314.748 50.2746 313.83 52.4924C313.159 50.7956 312.879 49.8396 312.879 49.8396V54.6761C302.224 78.0126 248.478 162.634 46 104.227C81.9171 503.541 289.008 611.013 312.879 622.124V623.965C312.879 623.965 313.589 623.673 314.938 623.048C315.06 623.1 315.121 623.126 315.121 623.126V622.963C338.992 611.852 546.083 504.381 582 105.067C379.522 163.474 325.776 78.8522 315.121 55.5157V49Z" fill="white"/>
<path fill-rule="evenodd" clip-rule="evenodd" d="M210.196 309.681C206.159 327.851 206.392 348.464 209.696 367.364C209.696 368.439 209.673 369.748 209.646 371.246C209.435 383.284 209.011 407.467 218.589 419.399C221.191 426.048 228.571 429.577 235.436 427.317L403.049 372.124C404.505 371.644 405.824 370.942 406.982 370.067L409.767 369.15C417.042 354.52 421.356 336.307 421.356 316.565C421.356 284.102 409.691 255.774 392.375 240.71C380.398 226.5 351.848 217 313.325 217C304.285 217 298.869 217.458 296.011 218.33C280.44 220.752 266.223 226.383 254.382 234.368C232.22 245.633 215.213 274.231 210.196 309.681Z" fill="black"/>
<path d="M320.984 324.016C320.984 326.406 319.953 328.9 317.749 331.518C315.536 334.145 312.252 336.759 308.063 339.305C299.685 344.395 288.127 348.952 275.61 352.767C251.631 360.076 224.779 364.475 211.41 364.839C210.122 361.32 209.715 359.107 209.612 355.427C209.551 353.224 209.599 350.619 209.665 347.055C209.735 343.273 209.825 338.411 209.825 331.805C209.825 328.61 209.751 325.79 209.674 323.314C209.658 322.802 209.642 322.308 209.627 321.829C209.567 319.971 209.515 318.349 209.503 316.899C209.471 313.11 209.752 311.18 210.41 310.038C210.911 309.168 211.878 308.37 214.793 307.857C217.758 307.334 222.117 307.212 228.66 307.212C232.433 307.212 237.026 307.092 242.136 306.958C254.974 306.622 271.075 306.2 285.618 307.387C295.774 308.216 304.854 309.815 311.324 312.639C317.789 315.46 320.984 319.16 320.984 324.016Z" fill="white" stroke="black" stroke-width="5"/>
</svg>
