<svg width="237" height="255" viewBox="0 0 237 255" fill="none" xmlns="http://www.w3.org/2000/svg">
<path fill-rule="evenodd" clip-rule="evenodd" d="M118.617 50.0738C118.865 49.4734 118.966 49.1284 118.966 49.1284V50.8921C121.851 57.2102 136.402 80.1208 191.221 64.3077C181.497 172.418 125.429 201.515 118.966 204.523V204.567C118.966 204.567 118.95 204.56 118.917 204.546C118.552 204.715 118.359 204.794 118.359 204.794V204.296C111.897 201.288 55.8289 172.191 46.1047 64.0807C100.924 79.8938 115.475 56.9831 118.359 50.6651V49.3554C118.359 49.3554 118.435 49.6143 118.617 50.0738Z" fill="#008000"/>
<path fill-rule="evenodd" clip-rule="evenodd" d="M118.996 0C118.996 0 118.831 0.563582 118.425 1.5442C118.128 0.794031 118.004 0.371356 118.004 0.371356V2.50963C113.293 12.828 89.5289 50.2452 0 24.4196C15.8813 200.982 107.45 248.502 118.004 253.415V254.229C118.004 254.229 118.318 254.1 118.915 253.824C118.969 253.847 118.996 253.858 118.996 253.858V253.786C129.55 248.873 221.119 201.353 237 24.7909C147.471 50.6165 123.707 13.1993 118.996 2.88099V0ZM119.087 18.5176C119.087 18.5176 118.946 18.9993 118.599 19.8374C118.345 19.1962 118.239 18.8349 118.239 18.8349V20.6627C114.213 29.4817 93.9017 61.4609 17.3837 39.3885C30.9571 190.292 109.218 230.906 118.239 235.105V235.801C118.239 235.801 118.508 235.691 119.017 235.455C119.063 235.474 119.087 235.484 119.087 235.484V235.423C128.108 231.224 206.369 190.609 219.942 39.7058C143.424 61.7783 123.113 29.799 119.087 20.98V18.5176Z" fill="#008000"/>
<path fill-rule="evenodd" clip-rule="evenodd" d="M79.4348 117.031C77.9092 123.897 77.9972 131.687 79.2455 138.829C79.2455 139.236 79.2368 139.731 79.2269 140.297C79.1471 144.846 78.9869 153.985 82.6063 158.494C83.5899 161.007 86.3787 162.34 88.973 161.486L152.315 140.628C152.865 140.447 153.364 140.182 153.802 139.851L154.854 139.504C157.603 133.975 159.234 127.093 159.234 119.632C159.234 107.365 154.825 96.6597 148.282 90.9666C143.756 85.5965 132.967 82.0059 118.408 82.0059C114.991 82.0059 112.945 82.1789 111.865 82.5083C105.98 83.424 100.607 85.5521 96.1318 88.57C87.7573 92.8276 81.3307 103.634 79.4348 117.031Z" fill="black"/>
<path d="M121.302 122.448C121.302 123.351 120.913 124.294 120.08 125.283C119.243 126.276 118.002 127.264 116.419 128.226C113.253 130.149 108.885 131.872 104.155 133.313C95.0933 136.076 84.9455 137.738 79.8933 137.876C79.4068 136.546 79.2529 135.709 79.214 134.319C79.1908 133.486 79.209 132.502 79.2339 131.155C79.2604 129.726 79.2944 127.888 79.2944 125.392C79.2944 124.184 79.2665 123.119 79.2374 122.183C79.2314 121.99 79.2254 121.803 79.2195 121.622C79.1969 120.92 79.1771 120.307 79.1725 119.759C79.1607 118.327 79.2666 117.597 79.5153 117.166C79.7048 116.837 80.0703 116.536 81.1718 116.342C82.2924 116.144 83.9397 116.098 86.4124 116.098C87.8382 116.098 89.5739 116.053 91.5048 116.002C96.3567 115.875 102.441 115.715 107.937 116.164C111.775 116.477 115.207 117.082 117.652 118.149C120.095 119.215 121.302 120.613 121.302 122.448Z" fill="white" stroke="black" stroke-width="1.88954"/>
</svg>
